<svg width="25" height="24" viewBox="0 0 25 24" fill="none" xmlns="http://www.w3.org/2000/svg">
<g id="shopping-bag-03">
<path id="Icon" d="M16.4996 8C16.4996 9.06087 16.0782 10.0783 15.328 10.8284C14.5779 11.5786 13.5605 12 12.4996 12C11.4387 12 10.4213 11.5786 9.67116 10.8284C8.92102 10.0783 8.49959 9.06087 8.49959 8M4.13281 7.40138L3.43281 15.8014C3.28243 17.6059 3.20724 18.5082 3.51227 19.2042C3.78027 19.8157 4.24462 20.3204 4.83177 20.6382C5.50006 21 6.40545 21 8.21623 21H16.783C18.5937 21 19.4991 21 20.1674 20.6382C20.7546 20.3204 21.2189 19.8157 21.4869 19.2042C21.7919 18.5082 21.7167 17.6059 21.5664 15.8014L20.8664 7.40138C20.737 5.84875 20.6723 5.07243 20.3285 4.48486C20.0257 3.96744 19.5748 3.5526 19.0341 3.29385C18.42 3 17.641 3 16.083 3L8.91623 3C7.35821 3 6.57921 3 5.9651 3.29384C5.42433 3.5526 4.97349 3.96744 4.67071 4.48486C4.32689 5.07243 4.26219 5.84875 4.13281 7.40138Z" stroke="black" stroke-opacity="0.6" stroke-width="2" stroke-linecap="round" stroke-linejoin="round"/>
</g>
</svg>
